<?xml version="1.0" encoding="UTF-8"?>
<!-- Generator: Adobe Illustrator 25.4.1, SVG Export Plug-In . SVG Version: 6.00 Build 0)  -->
<svg xmlns="http://www.w3.org/2000/svg" xmlns:xlink="http://www.w3.org/1999/xlink" version="1.1" id="Capa_1" x="0px" y="0px" viewBox="0 0 512 512" style="enable-background:new 0 0 512 512;" xml:space="preserve" width="512" height="512">
<g>
	<path style="fill-rule:evenodd;clip-rule:evenodd;fill:#FD6085;" d="M187.113,111.442c0,0,15.406-96.066,121.164-89.735   c105.755,6.331,102.45,135.298,84.927,191.85c-23.106,74.566-82.889,186.171-111.073,197.075   c-28.185,10.905-216.668-80.264-261.864-155.842c-45.192-75.573-7.701-142.519,42.948-165.509   C113.867,66.296,187.113,111.442,187.113,111.442z"/>
	<g>
		<g>
			<path style="fill-rule:evenodd;clip-rule:evenodd;fill:#FFFFFF;" d="M279.141,181.43c4.555,17.758,24.928,24.717,16.842,38.798     c-7.444,12.962-19.41,22.802-34.362,26.638c-31.194,8.004-63.575-13.158-72.324-47.264c-8.748-34.106,9.451-68.244,40.645-76.243     c19.497-5,40.367,2.312,54.732,16.134C284.673,139.493,275.861,168.64,279.141,181.43z"/>
			<path style="fill-rule:evenodd;clip-rule:evenodd;fill:#074785;" d="M237.835,192.086c5.786,22.559,29.089,36.069,52.044,30.183     c2.111-0.544,4.144-1.233,6.092-2.048c8.086-14.082,10.85-31.838,6.294-49.598c-3.161-12.334-9.426-22.957-17.592-31.13     c-5.121-0.586-10.441-0.272-15.748,1.087C245.97,146.471,232.049,169.527,237.835,192.086z"/>
		</g>
		<g>
			<path style="fill-rule:evenodd;clip-rule:evenodd;fill:#FFFFFF;" d="M146.864,213.139c4.555,17.755,25.493,38.8,25.493,38.8     c-7.444,12.963-19.411,22.803-34.364,26.638c-31.193,7.999-63.574-13.158-72.322-47.264c-8.749-34.11,9.45-68.244,40.643-76.243     c19.498-5,40.37,2.306,54.734,16.13C161.047,171.2,143.584,200.348,146.864,213.139z"/>
			<path style="fill-rule:evenodd;clip-rule:evenodd;fill:#074785;" d="M114.208,223.797c5.786,22.559,29.087,36.069,52.044,30.183     c2.11-0.539,4.141-1.233,6.092-2.048c8.087-14.082,10.85-31.842,6.294-49.593c-3.162-12.334-9.424-22.962-17.59-31.139     c-5.121-0.581-10.444-0.272-15.749,1.092C122.343,178.182,108.423,201.242,114.208,223.797z"/>
		</g>
		<path style="fill-rule:evenodd;clip-rule:evenodd;fill:#074785;" d="M174.159,261.45c2.586,10.076,6.114,19.241,10.132,26.883    c0,0,15.944,5.679,24.337,3.525c8.392-2.151,14.947-13.604,14.947-13.604c-0.158-8.632-1.477-18.363-4.062-28.44L174.159,261.45z"/>
		<path style="fill-rule:evenodd;clip-rule:evenodd;fill:#FFA4AC;" d="M211.027,310.949c8.391-2.146,12.859-15.159,12.541-32.695    l-39.271,10.075C192.455,303.85,202.633,313.105,211.027,310.949z"/>
	</g>
	<g>
		<path style="fill-rule:evenodd;clip-rule:evenodd;fill:#F9D555;" d="M503.631,151.921c-4.966-10.787-12.522-20.108-20.072-29.171    c-5.845-7.02-13.276-19.457-23.636-19.457c-2.318,0-4.564,0.712-6.672,2.123c-5.073,3.393-8.591,6.814-10.755,10.455    c-4.582,7.718-2.673,14.846,5.376,20.085c1.97,1.284,4.038,2.371,6.04,3.435c5.875,3.102,12.615,6.772,17.035,11.847    c8.648,9.921,12.975,22.062,12.861,36.088c-0.31,38.586-13.925,72.869-40.469,101.89c-15.598,17.053-41.109,27.643-66.58,27.643    c-24.518,0-45.095-9.349-57.939-26.336c-9.151-12.104-14.796-26.261-16.325-40.933c-2.7-25.942,1.648-52.789,13.297-82.078    c4.17-10.473,9.997-23.946,18.134-35.263c6.532-9.087,16.362-14.879,26.984-17.957c7.486-2.17,15.359-3.88,23.198-3.388    c7.819,0.492,14.647,4.981,22.493,4.981c9.815,0,16.474-6.546,18.267-17.948c0.218-1.373,0.291-2.591,0.222-3.721    c-0.179-2.985-1.279-5.83-2.856-8.337c-1.521-2.423-3.361-4.897-6.225-5.736c-4.677-1.373-10.3-0.234-15.015,0.459    c-3,0.436-6.003,1.031-8.908,1.602c-6.648,1.308-13.596,1.579-20.304,2.61c-5.963,0.914-11.9,2.048-17.702,3.726    c-10.991,3.172-21.505,8.28-30.358,15.576c-4.765,3.927-9.449,8.506-13.262,13.374c-9.933,12.695-15.951,27.634-21.262,41.847    c-13.749,36.791-18.105,67.827-13.705,97.677c3.254,22.053,11.066,39.72,23.887,54.008c7.812,8.716,17.532,14.677,26.93,20.446    c2.027,1.242,4.124,2.53,6.161,3.819c5.709,3.622-0.052,13.754-0.301,14.189c-5.838,10.103-18.333,11.017-28.479,13.73    c-12.336,3.294-24.332,8.435-34.344,16.481c-12.553,10.084-19.304,25.418-18.528,42.077c0.854,18.224,10.305,35.01,25.284,44.893    c23.717,15.656,50.586,23.932,77.701,23.932c24.006,0,50.54-5.877,70.211-20.23c9.715-7.095,17.628-13.355,29.143-16.907    c-8.337-9.902-22.355-17.592-32.907-25.553c-0.336,15.394-13.939,23.29-27.201,28.988c-19.077,8.191-41.01,8.866-61.15,4.691    c-9.238-1.912-40.214-9.541-51.067-27.217c-3.769-6.139-4.669-12.98-2.674-20.328c6.683-24.64,38.913-22.836,57.942-30.957    c7.481-3.191,14.372-8.013,19.377-14.48c4.641-6.003,6.141-17.156,12.698-21.21c5.327-3.294,12.926-2.329,18.907-2.61    c25.353-1.19,47.94-11.158,67.014-27.835c17.137-14.977,31.392-34.795,41.224-57.307c5.25-12.02,9.626-25.314,13.008-39.495    C514.46,194.429,512.924,172.114,503.631,151.921z"/>
		<path style="fill-rule:evenodd;clip-rule:evenodd;fill:#074785;" d="M426.27,107.051c-4.916,11.003-17.171,16.233-27.373,11.678    c-10.199-4.56-14.481-17.175-9.566-28.178c4.916-11.007,17.171-16.233,27.373-11.678    C426.905,83.433,431.187,96.048,426.27,107.051z"/>
		<path style="fill-rule:evenodd;clip-rule:evenodd;fill:#074785;" d="M473.042,127.155c-4.882,10.933-17.056,16.125-27.191,11.598    c-10.132-4.527-14.388-17.062-9.502-27.995c4.883-10.928,17.059-16.12,27.191-11.598    C473.674,103.687,477.929,116.222,473.042,127.155z"/>
		<path style="fill-rule:evenodd;clip-rule:evenodd;fill:#FD6085;" d="M502.64,423.965c0,25.507-20.675,46.177-46.176,46.177    c-25.503,0-46.175-20.67-46.175-46.177c0-25.502,20.672-46.172,46.175-46.172C481.965,377.792,502.64,398.463,502.64,423.965z"/>
		<path style="fill-rule:evenodd;clip-rule:evenodd;fill:#FFA4AC;" d="M483.594,423.965c0,14.986-12.146,27.133-27.13,27.133    c-14.983,0-27.129-12.146-27.129-27.133c0-14.981,12.146-27.128,27.129-27.128C471.448,396.837,483.594,408.983,483.594,423.965z"/>
		<path style="fill-rule:evenodd;clip-rule:evenodd;fill:#074785;" d="M470.377,423.965c0,7.685-6.228,13.913-13.913,13.913    c-7.684,0-13.913-6.228-13.913-13.913c0-7.68,6.229-13.913,13.913-13.913C464.149,410.052,470.377,416.284,470.377,423.965z"/>
		<g>
			<path style="fill-rule:evenodd;clip-rule:evenodd;fill:#074785;" d="M330.457,302.271c-2.558,8.398-3.462,18.866-12.138,24.204     c2.656,1.72,5.336,3.365,7.992,4.996c2.027,1.242,4.124,2.53,6.161,3.819c5.709,3.622-0.052,13.754-0.301,14.189     c-3.371,5.834-8.963,8.604-15.039,10.427c0.248,1.86,0.807,3.782,1.816,5.797c2.262,6.223,10.019,13.131,18.061,16.978     c7.129-3.196,13.669-7.877,18.469-14.082c4.641-6.003,6.141-17.156,12.698-21.21c4.127-2.554,9.618-2.549,14.663-2.544     c2.201-3.234,3.797-7.057,4.174-12.714c0.71-5.9,0.457-11.144-0.673-15.764c-3.181,0.323-6.38,0.492-9.58,0.492     C358.672,316.859,342.734,311.765,330.457,302.271z"/>
		</g>
	</g>
	<g>
		<path style="fill-rule:evenodd;clip-rule:evenodd;fill:#FFFFFF;" d="M229.351,74.68c5.671,6.645,14.881-2.118,9.318-8.936    C232.926,58.906,223.492,68.011,229.351,74.68z"/>
		<path style="fill-rule:evenodd;clip-rule:evenodd;fill:#FFFFFF;" d="M346.114,56.493c4.102,7.877,15.477,2.048,11.52-5.975    C353.498,42.43,341.827,48.536,346.114,56.493z"/>
		<path style="fill-rule:evenodd;clip-rule:evenodd;fill:#FFFFFF;" d="M252.01,61.151c21.738-15.309,52.563-23.215,79.007-11.233    c6.045,2.751,9.56-6.884,3.39-9.705c-29.4-13.374-64.085-4.996-88.221,12.109C240.906,56.033,246.834,64.778,252.01,61.151z"/>
	</g>
	<g>
		<path style="fill-rule:evenodd;clip-rule:evenodd;fill:#FFFFFF;" d="M486.015,234.758c-8.531-1.87-10.584,10.675-2.032,12.751    C492.69,249.491,494.711,236.534,486.015,234.758z"/>
		<path style="fill-rule:evenodd;clip-rule:evenodd;fill:#FFFFFF;" d="M403.926,319.764c-8.029-3.81-13.575,7.709-5.576,11.716    C406.531,335.43,412.145,323.513,403.926,319.764z"/>
		<path style="fill-rule:evenodd;clip-rule:evenodd;fill:#FFFFFF;" d="M476.122,259.224c-8.081,25.329-27.879,50.245-56.195,56.66    c-6.482,1.457-3.46,11.261,3.16,9.785c31.506-7.095,54.1-34.72,63.01-62.925C488.062,256.595,478.06,253.212,476.122,259.224z"/>
	</g>
	<path style="fill:#FFA4AC;" d="M234.817,333.654c0.082-1.373,7.72-2.212,11.931-3.294c-1.615-4.138-5.441-10.909-4.309-11.687   c0.961-0.651,4.951,3.229,8.233,6.05c1.035-4.358,2.322-10.174,3.531-10.103c1.365,0.08,2.604,7.503,3.51,11.8   c4.112-1.804,10.87-5.178,11.64-4.054c0.678,0.994-3.207,5.398-6.088,8.721c4.27,1.036,9.768,1.987,9.699,3.14   c-0.08,1.378-7.781,2.184-11.973,3.294c1.593,4.138,5.464,10.909,4.33,11.683c-0.955,0.656-4.89-3.201-8.168-6.012   c-1.03,4.354-2.327,10.145-3.531,10.071c-1.365-0.08-2.585-7.479-3.497-11.781c-4.105,1.804-10.92,5.202-11.695,4.072   c-0.682-0.998,3.229-5.403,6.11-8.73C240.264,335.786,234.751,334.806,234.817,333.654z"/>
	<path style="fill:#074785;" d="M348.575,193.07c-0.698-0.679-2.097-10.146-3.371-10.071c-1.272,0.075-2.382,9.466-2.977,10.084   c-1.19,1.237-9.921,2.118-9.849,3.323c0.072,1.2,8.643,1.767,9.853,2.938c0.677,0.656,2.097,10.145,3.371,10.075   c1.27-0.075,2.359-9.442,2.978-10.08c1.15-1.195,9.946-2.123,9.876-3.332C358.385,194.809,349.739,194.199,348.575,193.07z"/>
	<path style="fill:#FFFFFF;" d="M151.814,316.001c-0.698-0.675-2.097-10.141-3.369-10.061c-1.274,0.075-2.383,9.461-2.978,10.08   c-1.189,1.242-9.918,2.118-9.85,3.323c0.072,1.2,8.645,1.767,9.854,2.938c0.677,0.656,2.099,10.145,3.371,10.07   c1.27-0.07,2.358-9.433,2.978-10.075c1.15-1.195,9.947-2.123,9.876-3.327C161.624,317.74,152.978,317.135,151.814,316.001z"/>
	<path style="fill:#FFFFFF;" d="M337.158,257.499c0,2.633-2.139,4.775-4.779,4.775c-2.637,0-4.777-2.142-4.777-4.775   c0-2.638,2.14-4.78,4.777-4.78C335.018,252.72,337.158,254.861,337.158,257.499z"/>
	<path style="fill:#FFFFFF;" d="M295.658,262.275c0,2.638-2.137,4.775-4.775,4.775c-2.641,0-4.779-2.137-4.779-4.775   c0-2.638,2.138-4.775,4.779-4.775C293.522,257.499,295.658,259.636,295.658,262.275z"/>
	<path style="fill:#FFFFFF;" d="M309.236,153.378c0,2.638-2.138,4.78-4.779,4.78c-2.639,0-4.777-2.142-4.777-4.78   c0-2.638,2.138-4.78,4.777-4.78C307.098,148.599,309.236,150.74,309.236,153.378z"/>
	<path style="fill:#FFFFFF;" d="M507.416,181.43c0,2.638-2.137,4.78-4.776,4.78c-2.638,0-4.777-2.142-4.777-4.78   c0-2.638,2.139-4.78,4.777-4.78C505.279,176.65,507.416,178.791,507.416,181.43z"/>
	<path style="fill:#FFFFFF;" d="M270.49,420.525c0,2.639-2.139,4.78-4.777,4.78c-2.638,0-4.779-2.141-4.779-4.78   c0-2.633,2.14-4.775,4.779-4.775C268.351,415.75,270.49,417.891,270.49,420.525z"/>
	<path style="fill:#FFFFFF;" d="M349.961,475.803c0,2.634-2.139,4.775-4.779,4.775c-2.638,0-4.776-2.141-4.776-4.775   c0-2.638,2.138-4.78,4.776-4.78C347.822,471.023,349.961,473.164,349.961,475.803z"/>
	<path style="fill:#FFFFFF;" d="M218.02,371.138c0,2.643-2.138,4.78-4.778,4.78c-2.638,0-4.776-2.137-4.776-4.78   c0-2.634,2.138-4.775,4.776-4.775C215.882,366.363,218.02,368.504,218.02,371.138z"/>
	<path style="fill:#FFFFFF;" d="M258.669,287.083c0,2.638-2.136,4.775-4.777,4.775c-2.638,0-4.779-2.137-4.779-4.775   c0-2.639,2.14-4.78,4.779-4.78C256.533,282.303,258.669,284.445,258.669,287.083z"/>
	<path style="fill:#FFFFFF;" d="M290.883,90.416c0,2.638-2.139,4.775-4.779,4.775c-2.641,0-4.777-2.137-4.777-4.775   s2.137-4.78,4.777-4.78C288.744,85.636,290.883,87.777,290.883,90.416z"/>
	<path style="fill:#FFFFFF;" d="M222.798,108.954c0,2.638-2.138,4.78-4.777,4.78c-2.639,0-4.778-2.142-4.778-4.78   s2.139-4.775,4.778-4.775C220.66,104.179,222.798,106.316,222.798,108.954z"/>
	<path style="fill:#FFFFFF;" d="M376.784,153.378c0,2.638-2.139,4.78-4.778,4.78c-2.64,0-4.779-2.142-4.779-4.78   c0-2.638,2.138-4.775,4.779-4.775C374.644,148.603,376.784,150.74,376.784,153.378z"/>
	<path style="fill:#FFFFFF;" d="M304.458,348.171c0,2.638-2.137,4.775-4.777,4.775c-2.638,0-4.779-2.137-4.779-4.775   s2.14-4.775,4.779-4.775C302.321,343.396,304.458,345.533,304.458,348.171z"/>
	<path style="fill:#FFFFFF;" d="M85.874,290.298c0,2.638-2.139,4.78-4.779,4.78c-2.638,0-4.776-2.142-4.776-4.78   c0-2.638,2.138-4.775,4.776-4.775C83.734,285.523,85.874,287.659,85.874,290.298z"/>
	<path style="fill:#FFFFFF;" d="M117.676,127.994c0,2.638-2.138,4.775-4.777,4.775s-4.777-2.137-4.777-4.775   c0-2.638,2.138-4.78,4.777-4.78S117.676,125.355,117.676,127.994z"/>
	<path style="fill:#FFFFFF;" d="M47.931,155.9c0,2.638-2.138,4.775-4.777,4.775c-2.638,0-4.779-2.137-4.779-4.775   s2.14-4.78,4.779-4.78C45.793,151.12,47.931,153.261,47.931,155.9z"/>
	<path style="fill:#FFFFFF;" d="M38.375,221.599c0,2.638-2.137,4.78-4.777,4.78c-2.638,0-4.777-2.142-4.777-4.78   c0-2.638,2.139-4.775,4.777-4.775C36.238,216.824,38.375,218.961,38.375,221.599z"/>
	<path style="fill:#FFFFFF;" d="M76.316,104.179c0,2.638-2.137,4.775-4.776,4.775s-4.777-2.137-4.777-4.775   c0-2.638,2.138-4.78,4.777-4.78S76.316,101.54,76.316,104.179z"/>
</g>















</svg>
